<svg xmlns="http://www.w3.org/2000/svg" xmlns:xlink="http://www.w3.org/1999/xlink" id="Capa_1" x="0px" y="0px" viewBox="0 0 1058.11 441.51" style="enable-background:new 0 0 1058.11 441.51;" xml:space="preserve"><style type="text/css">	.st0{fill:#008BD0;}	.st1{fill:#A1DBFD;}</style><g>	<g>		<circle class="st0" cx="223.24" cy="224.19" r="148.19"></circle>		<g>			<g>				<circle class="st1" cx="208.93" cy="105.79" r="5.91"></circle>				<circle class="st1" cx="208.93" cy="129.43" r="5.91"></circle>				<circle class="st1" cx="208.93" cy="153.06" r="5.91"></circle>				<circle class="st1" cx="208.93" cy="176.7" r="5.91"></circle>				<circle class="st1" cx="208.93" cy="200.33" r="5.91"></circle>				<circle class="st1" cx="208.93" cy="223.97" r="5.91"></circle>				<circle class="st1" cx="208.93" cy="247.6" r="5.91"></circle>				<circle class="st1" cx="208.93" cy="271.24" r="5.91"></circle>				<circle class="st1" cx="208.93" cy="294.87" r="5.91"></circle>				<circle class="st1" cx="208.93" cy="318.51" r="5.91"></circle>				<circle class="st1" cx="208.93" cy="342.14" r="5.91"></circle>				<circle class="st1" cx="185.3" cy="318.51" r="3.55"></circle>				<circle class="st1" cx="185.3" cy="294.87" r="3.55"></circle>				<circle class="st1" cx="185.3" cy="273.01" r="3.55"></circle>				<circle class="st1" cx="185.3" cy="245.83" r="3.55"></circle>				<circle class="st1" cx="185.3" cy="223.97" r="3.55"></circle>				<circle class="st1" cx="185.3" cy="200.33" r="3.55"></circle>				<circle class="st1" cx="185.3" cy="176.7" r="3.55"></circle>				<circle class="st1" cx="173.48" cy="306.69" r="2.36"></circle>				<circle class="st1" cx="173.48" cy="283.06" r="2.36"></circle>				<circle class="st1" cx="173.48" cy="259.42" r="2.36"></circle>				<circle class="st1" cx="173.48" cy="235.79" r="2.36"></circle>				<circle class="st1" cx="173.48" cy="212.15" r="2.36"></circle>				<circle class="st1" cx="173.48" cy="188.52" r="2.36"></circle>				<circle class="st1" cx="197.11" cy="330.33" r="4.73"></circle>				<circle class="st1" cx="197.11" cy="306.69" r="4.73"></circle>				<circle class="st1" cx="197.11" cy="283.06" r="4.73"></circle>				<circle class="st1" cx="197.11" cy="259.42" r="4.73"></circle>				<circle class="st1" cx="197.11" cy="235.79" r="4.73"></circle>				<circle class="st1" cx="197.11" cy="212.15" r="4.73"></circle>				<circle class="st1" cx="197.11" cy="188.52" r="4.73"></circle>				<circle class="st1" cx="197.11" cy="164.88" r="4.73"></circle>				<circle class="st1" cx="197.11" cy="141.24" r="4.73"></circle>				<circle class="st1" cx="197.11" cy="117.61" r="4.73"></circle>				<path class="st1" d="M261.52,173.15c0,0,12.7,3.93,18.55,12.37c3.78,5.45,5.89,18.93,7.43,28.76c0.49,3.16,0.92,5.89,1.32,7.84     c0.15,0.71,0.31,1.62,0.51,2.67c1.11,6.01,3.18,17.2,7.3,23.82c5.32,8.54,10.2,17.36,11.56,31.27     c1.42,14.51,3.87,22.4,6.93,31.2c1.65,4.75,2.76,9.36,3.41,12.47c7.67,4.72,11.31,7.52,12.19,9.34c1.07,2.25,2.88,5.58,4.5,7.95     c1.28,1.88,0.97,2.93,0.67,3.38c-0.37,0.57-1.08,0.82-1.89,0.67c-1.39-0.26-3.78-1.79-4.92-3.45c-0.34-0.5-0.8-0.98-1.24-1.39     c0.38,1.23,0.89,2.82,1.36,4.11c0.69,1.89,1.99,5.14,2.86,7.29c0.29,0.72,0.54,1.34,0.71,1.77c0.32,0.8,0.68,1.86,1.07,2.99     c0.47,1.36,0.95,2.77,1.31,3.59c0.89,2.02-0.08,2.94-0.75,3.3l-0.13,0.07c-0.3,0.18-0.76,0.45-1.37,0.3     c-0.65-0.17-1.25-0.77-1.95-1.96c-1.38-2.34-3.15-5.99-3.69-7.45c-0.31-0.84-1.18-2.44-1.82-3.6c-0.27-0.49-0.46-0.84-0.59-1.08     c-0.07,0.04-0.15,0.09-0.23,0.15c0.34,1.18,1.29,4.59,1.66,6.47c0.44,2.26,1.5,5.95,1.84,7.04c0.06,0.18,0.16,0.45,0.29,0.78     c0.87,2.25,1.74,4.76,1.08,6.24c-0.21,0.47-0.57,0.81-1.04,0.99c-0.7,0.26-1.34,0.26-1.9-0.02c-1.17-0.57-1.67-2.19-2.16-3.74     l-0.18-0.57c-0.3-0.92-0.59-1.78-0.86-2.58c-0.38-1.13-0.71-2.11-0.96-2.98c-0.25-0.9-0.64-1.87-1.13-3.11     c-0.29-0.74-0.62-1.56-0.98-2.53c-0.63-1.68-1.15-2.79-1.43-3.35l-0.37,0.1c-0.01,0.55,0,1.54,0.19,2.56     c0.15,0.78,0.27,1.93,0.41,3.13c0.15,1.32,0.3,2.68,0.48,3.61c0.2,1.05,0.43,2.68,0.66,4.25c0.17,1.18,0.33,2.36,0.49,3.32     c0.24,1.44-0.44,2.8-1.58,3.16c-0.8,0.26-1.9,0.01-2.61-1.43c-0.77-1.57-1.25-3.95-1.67-6.05c-0.21-1.06-0.41-2.06-0.62-2.79     c-0.47-1.67-0.67-3.25-0.85-4.64c-0.06-0.48-0.12-0.92-0.18-1.34c-0.17-1.1-0.42-2.4-0.55-3.08l-0.65-0.03     c-0.07,0.25-0.17,0.76-0.22,1.77c-0.17,3.08-0.43,6.36-0.65,7.98c-0.03,0.21-0.06,0.46-0.08,0.73c-0.21,1.96-0.44,3.5-1.32,4.07     c-0.33,0.22-0.72,0.27-1.12,0.14c-1.96-0.62-1.88-2.41-1.75-5.12c0.07-1.44,0.04-2.47,0.01-3.47c-0.03-1.02-0.05-1.99,0.04-3.2     c0.17-2.19,0.17-3.91-0.01-5.24c-0.06-0.44-0.6-2-1.17-3.66c-1.08-3.14-2.56-7.44-3.1-10.47c-0.4-2.23-0.49-3.89-0.57-5.49     c-0.13-2.46-0.26-4.78-1.54-8.86c-2.72-8.68-6.68-17.03-9.86-23.74c-0.71-1.5-1.38-2.91-1.97-4.2     c-0.44-0.96-0.97-2.06-1.56-3.28c-3.67-7.64-9.81-20.42-10.7-32.09c-0.25-3.27-3.46-10.59-6.14-15.86     c-0.72-1.42-2.3-4.73-4.03-8.81c-0.48,4.07-0.95,8.08-1.27,9.99c-1.54,9.12-2.6,23.45-2.6,35.07c0,20.54,7.37,44.84,10.75,70.2     c-16.12,6.76-33.82,10.51-52.4,10.51c-3.26,0-5.91-2.65-5.91-5.91c0-3.26,2.65-5.91,5.91-5.91c3.26,0,5.91-2.65,5.91-5.91     c0-3.26-2.65-5.91-5.91-5.91c0,0,0,0,0,0c-3.26,0-5.91-2.64-5.91-5.91c0-3.26,2.65-5.91,5.91-5.91c3.26,0,5.91-2.65,5.91-5.91     c0-3.26-2.65-5.91-5.91-5.91c0,0,0,0,0,0c-3.26,0-5.91-2.65-5.91-5.91c0-3.26,2.65-5.91,5.91-5.91c3.26,0,5.91-2.65,5.91-5.91     c0-3.26-2.65-5.91-5.91-5.91c-3.26,0-5.91-2.64-5.91-5.91s2.64-5.91,5.91-5.91c0,0,0,0,0,0c3.26,0,5.91-2.64,5.91-5.91     c0-3.26-2.65-5.91-5.91-5.91c-3.26,0-5.91-2.64-5.91-5.91c0-3.26,2.64-5.91,5.9-5.91c0,0,0,0,0,0c3.26,0,5.91-2.64,5.91-5.91     c0-3.26-2.65-5.91-5.91-5.91c0,0,0,0,0,0c-3.26,0-5.91-2.65-5.91-5.91c0-3.26,2.65-5.91,5.91-5.91c3.26,0,5.91-2.65,5.91-5.91     c0-3.26-2.65-5.91-5.91-5.91c0,0,0,0,0,0c-3.26,0-5.91-2.65-5.91-5.91c0-3.26,2.65-5.91,5.91-5.91c3.26,0,5.91-2.65,5.91-5.91     c0-3.26-2.65-5.91-5.91-5.91c-3.26,0-5.91-2.64-5.91-5.91c0-3.26,2.65-5.91,5.91-5.91c0,0,0,0,0,0c3.26,0,5.91-2.64,5.91-5.91     c0-3.26-2.65-5.91-5.91-5.91c-3.26,0-5.91-2.64-5.91-5.91c0-3.26,2.64-5.91,5.91-5.91c0,0,0,0,0,0c3.26,0,5.91-2.64,5.91-5.91     c0-3.26-2.65-5.91-5.91-5.91c0,0,0,0,0,0c-3.26,0-5.9-2.65-5.9-5.91c0-3.26,2.65-5.91,5.91-5.91c3.26,0,5.91-2.65,5.91-5.91     c0-3.26-2.65-5.91-5.91-5.91c0,0,0,0,0,0c-3.26,0-5.91-2.64-5.91-5.91c0-3.26,2.65-5.91,5.91-5.91c3.26,0,5.91-2.65,5.91-5.91     s-2.65-5.91-5.91-5.91c-3.26,0-5.91-2.65-5.91-5.91s2.65-5.91,5.91-5.91c10.44,0,21.59,5.44,21.59,20.7     c0,2.65-0.08,5.33-0.24,8.16c0.78-0.29,1.71-0.34,2.51-0.09c1.21,0.38,1.93,1.38,1.99,2.74c0.13,3.03-0.75,8.75-2.48,11.18     c-0.76,1.06-1.6,1.67-2.49,1.8c-0.39,0.06-0.79,0.02-1.18-0.11c-0.49,3.18-0.96,5.71-1.28,7.43c-0.11,0.59-0.2,1.07-0.27,1.45     c-0.31,1.77-1.15,3.38-2.5,4.8l-0.01,0.8c-0.02,2.68-0.06,5.72,0.73,9.81c0.71,3.73,4.72,6.68,7.77,8.65     C250.53,169.04,256.02,171.18,261.52,173.15z"></path>			</g>		</g>	</g>	<g>		<g>			<path class="st0" d="M457.21,263.79c0.51,0.91,1.48,1.95,2.9,3.13l-5.21,4.73c-1.97-1.1-3.43-2.54-4.37-4.32    c-0.95-1.77-1.5-3.61-1.66-5.5c-4.1,6.55-10.37,9.82-18.81,9.82c-4.89,0-9.16-1.12-12.83-3.37c-3.67-2.25-6.51-5.42-8.52-9.52    c-2.01-4.1-3.01-8.87-3.01-14.31v-3.78c0-5.44,1-10.21,3.01-14.31c2.01-4.1,4.85-7.27,8.52-9.52c3.67-2.25,7.94-3.37,12.83-3.37    c4.02,0,7.63,0.79,10.82,2.37c3.19,1.58,5.74,3.82,7.63,6.74v-26.49c0-1.42-0.24-2.56-0.71-3.43c-0.47-0.87-1.46-1.97-2.96-3.31    l5.44-4.61c2.29,1.26,3.88,2.76,4.79,4.49c0.9,1.74,1.36,4.1,1.36,7.1v63.98C456.44,261.72,456.7,262.88,457.21,263.79z     M448.52,232.63c-1.34-4.26-3.39-7.45-6.15-9.58c-2.76-2.13-6.42-3.19-11-3.19c-5.37,0-9.66,1.89-12.89,5.68    c-3.23,3.78-4.85,8.83-4.85,15.14v3.78c0,6.31,1.62,11.35,4.85,15.14c3.23,3.78,7.53,5.68,12.89,5.68c4.57,0,8.24-1.06,11-3.19    c2.76-2.13,4.81-5.32,6.15-9.58V232.63z"></path>			<path class="st0" d="M476.19,200.58c-1.11-1.1-1.66-2.4-1.66-3.9c0-1.5,0.55-2.78,1.66-3.84c1.1-1.06,2.4-1.6,3.9-1.6    c1.5,0,2.78,0.53,3.84,1.6c1.06,1.06,1.6,2.35,1.6,3.84c0,1.5-0.53,2.8-1.6,3.9c-1.07,1.1-2.35,1.66-3.84,1.66    C478.6,202.23,477.29,201.68,476.19,200.58z M477.43,267.1c-0.91-1.7-1.36-4.04-1.36-7.04v-45.3H484v45.53    c0,1.42,0.26,2.58,0.77,3.49c0.51,0.91,1.48,1.95,2.9,3.13l-5.2,4.73C480.01,270.32,478.34,268.8,477.43,267.1z"></path>			<path class="st0" d="M548.15,263.79c0.51,0.91,1.48,1.95,2.9,3.13l-5.32,4.73c-1.97-1.1-3.43-2.37-4.38-3.78    c-0.95-1.42-1.5-3.27-1.66-5.56c-2.05,3-4.85,5.3-8.4,6.92c-3.55,1.62-7.53,2.42-11.94,2.42c-5.99,0-10.61-1.4-13.84-4.2    c-3.23-2.8-4.85-6.84-4.85-12.12c0-4.89,1.69-8.71,5.09-11.47c3.39-2.76,8.51-4.53,15.37-5.32l9.22-1.06    c2.6-0.31,4.55-0.71,5.85-1.18c1.3-0.47,2.19-1.16,2.66-2.07c0.47-0.91,0.67-2.19,0.59-3.84c-0.71-7.33-5.84-11-15.37-11    c-3.55,0-6.58,0.57-9.1,1.71c-2.53,1.14-4.69,2.94-6.51,5.38l-5.44-4.02c3.7-5.99,10.72-8.99,21.05-8.99    c7.57,0,13.34,1.62,17.32,4.85c3.98,3.23,5.97,7.88,5.97,13.96v28.03C547.38,261.72,547.64,262.88,548.15,263.79z M534.49,261.25    c3.39-2.84,5.08-6.58,5.08-11.24v-9.58c-0.95,0.71-2.09,1.24-3.43,1.6c-1.34,0.35-3.2,0.65-5.56,0.89l-8.75,0.95    c-4.49,0.55-7.91,1.79-10.23,3.72c-2.32,1.93-3.49,4.48-3.49,7.63c0,6.86,4.34,10.29,13.01,10.29    C526.65,265.51,531.1,264.09,534.49,261.25z"></path>			<path class="st0" d="M616.92,218.2c-1.42,1.18-2.38,2.23-2.9,3.13c-0.51,0.91-0.77,2.07-0.77,3.49v49.67    c0,6.54-1.73,11.43-5.2,14.66c-3.47,3.23-8.75,4.85-15.85,4.85h-14.19v-6.27h14.19c4.33,0,7.61-1.12,9.81-3.37    s3.31-5.54,3.31-9.87v-13.36c-1.89,3-4.4,5.28-7.51,6.86c-3.11,1.58-6.72,2.37-10.82,2.37c-7.49,0-13.44-2.44-17.86-7.33    c-4.42-4.89-6.62-11.51-6.62-19.87v-2.48c0-5.44,1.01-10.21,3.02-14.31c2.01-4.1,4.85-7.27,8.51-9.52    c3.67-2.25,7.94-3.37,12.83-3.37c4.1,0,7.79,0.81,11.06,2.42c3.27,1.62,5.97,3.96,8.1,7.04c0-2.13,0.38-3.92,1.12-5.38    c0.75-1.46,2.27-2.82,4.55-4.08L616.92,218.2z M599.18,260.77c2.76-2.13,4.81-5.32,6.15-9.58v-18.57    c-1.34-4.26-3.39-7.45-6.15-9.58c-2.76-2.13-6.43-3.19-11-3.19c-5.36,0-9.66,1.89-12.89,5.68c-3.23,3.78-4.85,8.83-4.85,15.14    v2.48c0,6.31,1.61,11.35,4.85,15.14c3.23,3.78,7.53,5.68,12.89,5.68C592.75,263.97,596.42,262.9,599.18,260.77z"></path>			<path class="st0" d="M673.69,218.5c3.15,3.35,4.73,7.98,4.73,13.89v37.96h-7.93v-36.78c0-4.33-1.04-7.71-3.13-10.11    c-2.09-2.4-4.99-3.61-8.69-3.61c-4.26,0-7.94,1.58-11.06,4.73c-3.12,3.15-5.34,7.45-6.68,12.89v32.88h-7.92v-45.53    c0-1.42-0.26-2.58-0.77-3.49c-0.51-0.91-1.48-1.95-2.9-3.13l5.2-4.73c2.44,1.34,4.12,2.86,5.03,4.55    c0.91,1.7,1.36,4.04,1.36,7.04v1.06c1.97-4.1,4.63-7.23,7.98-9.4c3.35-2.17,7.23-3.25,11.65-3.25    C666.16,213.47,670.53,215.15,673.69,218.5z"></path>			<path class="st0" d="M700.59,266.04c-4.14-3.74-6.21-9.01-6.21-15.79v-15.37c0-6.78,2.07-12.04,6.21-15.79    c4.14-3.74,9.91-5.62,17.32-5.62s13.19,1.87,17.33,5.62c4.14,3.75,6.21,9.01,6.21,15.79v15.37c0,6.78-2.07,12.04-6.21,15.79    c-4.14,3.74-9.92,5.62-17.33,5.62S704.73,269.78,700.59,266.04z M729.45,261.37c2.72-2.6,4.08-6.31,4.08-11.12v-15.37    c0-4.81-1.36-8.52-4.08-11.12c-2.72-2.6-6.56-3.9-11.53-3.9c-4.97,0-8.81,1.3-11.53,3.9c-2.72,2.6-4.08,6.31-4.08,11.12v15.37    c0,4.81,1.36,8.52,4.08,11.12c2.72,2.6,6.56,3.9,11.53,3.9C722.89,265.27,726.73,263.97,729.45,261.37z"></path>		</g>		<g>			<path class="st0" d="M795.34,187.52h-35.4v82.88h11.33v-33.38h24.07c7.99,0,14.2-2.15,18.47-6.38    c4.27-4.23,6.44-10.44,6.44-18.43c0-7.92-2.17-14.08-6.44-18.32C809.54,189.67,803.32,187.52,795.34,187.52z M808.93,212.21    c0,4.8-1.25,8.56-3.73,11.17c-2.49,2.62-5.94,3.9-10.55,3.9h-23.39v-30.03h23.39c4.61,0,8.06,1.28,10.55,3.9    C807.67,203.77,808.93,207.49,808.93,212.21z"></path>			<path class="st0" d="M883.63,235.5c-1.25-1.89-2.83-3.47-4.7-4.7c3.37-1.21,6.14-3.16,8.26-5.82c2.91-3.65,4.38-8.56,4.38-14.59    c0-7.17-2.14-12.84-6.35-16.86c-4.2-3.99-10.29-6.01-18.11-6.01h-35.74v82.88h11.33v-36.12h16.9c3.87,0,6.94,0.48,9.13,1.41    c2.11,0.9,3.72,2.28,4.92,4.23c1.28,2.06,2.45,5.02,3.47,8.81l5.77,21.67h12.02l-6.12-22.49    C887.3,242.61,885.57,238.43,883.63,235.5z M880.25,210.96c0,4.39-1.19,7.67-3.63,10.04c-2.45,2.39-5.86,3.55-10.42,3.55h-23.5    v-27.3h23.5c4.49,0,8,1.19,10.42,3.55C879.06,203.18,880.25,206.5,880.25,210.96z"></path>			<path class="st0" d="M960.8,194.15c-5.66-5.23-13.84-7.88-24.3-7.88c-10.46,0-18.64,2.65-24.3,7.88    c-5.7,5.26-8.59,12.91-8.59,22.74v24.15c0,9.83,2.89,17.48,8.59,22.74c5.66,5.23,13.84,7.88,24.3,7.88    c10.46,0,18.64-2.65,24.3-7.88c5.7-5.26,8.59-12.91,8.59-22.74v-24.15C969.39,207.05,966.5,199.4,960.8,194.15z M958.06,216.88    v24.15c0,6.75-1.85,11.96-5.51,15.51c-3.67,3.56-9.07,5.37-16.06,5.37c-6.99,0-12.39-1.81-16.06-5.37    c-3.65-3.55-5.51-8.77-5.51-15.51v-24.15c0-6.74,1.85-11.96,5.51-15.51c3.67-3.56,9.07-5.37,16.06-5.37    c6.99,0,12.39,1.81,16.06,5.37C956.21,204.92,958.06,210.14,958.06,216.88z"></path>		</g>		<g>			<path class="st0" d="M735.03,296.1h-10.12v-3.67h24.42v3.67h-10.12v25.85h-4.18V296.1z"></path>			<path class="st0" d="M785.89,318.29v3.67h-21.42v-29.52h20.84v3.67h-16.62v9.07h14.8v3.58h-14.8v9.53H785.89z"></path>			<path class="st0" d="M830.64,321.96l-0.04-21.51l-10.67,17.92h-1.94l-10.67-17.8v21.38h-4.05v-29.52h3.46l12.32,20.75    l12.15-20.75h3.46l0.04,29.52H830.64z"></path>			<path class="st0" d="M853.84,309.22v-16.79h4.22v16.62c0,6.54,2.99,9.49,8.31,9.49c5.31,0,8.35-2.95,8.35-9.49v-16.62h4.09v16.79    c0,8.56-4.68,13.07-12.48,13.07C858.56,322.29,853.84,317.78,853.84,309.22z"></path>			<path class="st0" d="M895.59,307.19c0-8.73,6.66-15.1,15.65-15.1c4.56,0,8.52,1.56,11.22,4.6l-2.74,2.66    c-2.28-2.4-5.06-3.5-8.31-3.5c-6.66,0-11.6,4.81-11.6,11.35s4.93,11.35,11.6,11.35c3.25,0,6.03-1.14,8.31-3.54l2.74,2.66    c-2.7,3.04-6.66,4.64-11.26,4.64C902.25,322.29,895.59,315.92,895.59,307.19z"></path>			<path class="st0" d="M935.99,307.19c0-8.65,6.66-15.1,15.73-15.1c8.98,0,15.65,6.41,15.65,15.1c0,8.69-6.66,15.1-15.65,15.1    C942.65,322.29,935.99,315.84,935.99,307.19z M963.15,307.19c0-6.54-4.89-11.35-11.43-11.35c-6.62,0-11.51,4.81-11.51,11.35    s4.89,11.35,11.51,11.35C958.26,318.54,963.15,313.73,963.15,307.19z"></path>		</g>	</g></g></svg>